<?xml version="1.0" standalone="no"?>
<!DOCTYPE svg PUBLIC "-//W3C//DTD SVG 20010904//EN"
 "http://www.w3.org/TR/2001/REC-SVG-20010904/DTD/svg10.dtd">
<svg version="1.0" xmlns="http://www.w3.org/2000/svg"
 width="200.000000pt" height="200.000000pt" viewBox="0 0 200.000000 200.000000"
 preserveAspectRatio="xMidYMid meet">
<metadata>
Created by potrace 1.11, written by Peter Selinger 2001-2013
</metadata>
<g transform="translate(0.000000,200.000000) scale(0.100000,-0.100000)"
fill="#000000" stroke="none">
<path d="M210 1870 c0 -5 -6 -10 -13 -10 -13 0 -42 -39 -34 -46 2 -2 356 -5
785 -5 430 0 782 -3 782 -7 -1 -4 -123 -89 -273 -189 -150 -100 -497 -333
-772 -518 -275 -185 -506 -340 -513 -344 -9 -5 -12 -22 -10 -48 l3 -41 548
366 c301 202 680 456 842 565 l295 198 0 44 0 45 -820 0 c-540 0 -820 -3 -820
-10z"/>
<path d="M165 1721 c-3 -2 -5 -19 -5 -38 l0 -33 606 0 607 0 53 31 c29 16 56
34 58 38 5 7 -1311 10 -1319 2z"/>
<path d="M1785 1656 c-33 -23 -253 -172 -490 -331 -236 -159 -587 -394 -780
-523 -192 -130 -351 -236 -353 -238 -2 -1 -2 -21 0 -43 l3 -42 480 323 c264
178 643 433 843 567 l362 244 0 43 c0 24 -1 44 -2 43 -2 0 -30 -19 -63 -43z"/>
<path d="M208 1572 c-47 -3 -48 -4 -48 -38 l0 -34 481 0 482 0 53 31 c29 16
55 33 58 37 4 7 -929 10 -1026 4z"/>
<path d="M1574 1332 c-144 -97 -520 -350 -837 -562 l-576 -385 -1 -42 c0 -24
3 -43 6 -43 3 0 128 83 277 183 150 101 405 273 567 382 162 109 418 281 568
382 l272 184 0 40 c0 21 -3 39 -7 39 -5 -1 -126 -81 -269 -178z"/>
<path d="M160 1381 l0 -38 358 1 357 1 60 37 60 37 -417 1 -418 0 0 -39z"/>
<path d="M1340 995 c-272 -184 -649 -436 -837 -562 l-342 -228 -1 -45 0 -46
845 0 845 0 0 38 0 38 -786 2 -787 3 529 355 c291 195 644 432 784 526 l255
171 3 42 c2 22 0 41 -5 40 -4 0 -231 -151 -503 -334z"/>
<path d="M1083 617 c-29 -17 -53 -34 -53 -37 0 -4 697 -5 798 -1 18 1 22 7 22
36 l0 35 -357 0 -358 -1 -52 -32z"/>
<path d="M834 464 c-29 -17 -57 -34 -61 -37 -3 -4 237 -7 535 -7 l542 0 0 38
0 39 -481 -1 -480 -1 -55 -31z"/>
<path d="M605 326 c-11 -7 -36 -23 -55 -34 l-35 -22 668 0 667 0 0 35 0 35
-612 -1 c-484 0 -617 -3 -633 -13z"/>
</g>
</svg>
